<svg version="1.0" xmlns="http://www.w3.org/2000/svg"
 width="32.000000pt" height="32.000000pt" viewBox="0 0 32.000000 32.000000"
 preserveAspectRatio="xMidYMid meet">
<metadata>
Created by potrace 1.10, written by Peter Selinger 2001-2011
</metadata>
<g transform="translate(0.000000,32.000000) scale(0.100000,-0.100000)"
fill="#000000" stroke="none">
<path d="M165 301 c-52 -21 -105 -50 -105 -57 0 -4 7 -3 16 0 8 3 13 2 10 -2
-2 -4 22 -15 55 -23 l60 -16 -32 33 c-26 27 -36 31 -51 23 -10 -5 -18 -7 -18
-5 0 3 9 10 20 16 17 9 27 4 65 -31 44 -41 45 -41 80 -27 l35 14 -48 45 -47
46 -40 -16z m65 -46 c15 -16 19 -25 10 -25 -15 0 -50 29 -50 42 0 15 16 8 40
-17z"/>
<path d="M27 214 c-21 -29 -21 -29 14 -37 21 -5 28 -2 37 18 10 21 8 26 -8 35
-24 13 -22 14 -43 -16z"/>
<path d="M90 190 c-9 -17 -7 -22 15 -30 34 -13 32 -14 44 20 10 29 9 30 -19
30 -19 0 -33 -7 -40 -20z"/>
<path d="M253 196 c-20 -9 -23 -18 -23 -73 0 -35 4 -63 10 -63 6 0 9 5 8 12
-2 6 8 17 22 24 14 7 25 18 24 24 -1 5 -2 28 -2 50 -2 42 -4 44 -39 26z"/>
<path d="M159 173 c-5 -13 -9 -26 -9 -27 0 -2 15 -7 33 -11 17 -4 26 -9 20
-12 -19 -7 -16 -53 2 -53 12 0 15 12 13 59 -3 53 -5 60 -26 64 -18 3 -26 -1
-33 -20z"/>
<path d="M60 139 c0 -11 -10 -29 -22 -39 -13 -10 -21 -21 -18 -24 3 -2 41 -20
85 -38 l80 -33 60 32 c33 18 65 34 70 36 6 3 6 9 -1 17 -9 9 -18 8 -40 -5 -17
-9 -20 -14 -9 -11 20 6 20 6 1 -9 -20 -15 -55 -11 -91 11 -11 6 -35 15 -52 19
-28 6 -33 11 -33 36 0 19 -5 29 -15 29 -9 0 -15 -9 -15 -21z m145 -95 l30 6
-25 -14 c-21 -12 -30 -12 -75 6 -27 11 -60 24 -72 29 -13 5 -23 11 -23 14 0 3
30 -7 68 -21 43 -16 78 -23 97 -20z"/>
</g>
</svg>
